<mxfile host="Electron" agent="Mozilla/5.0 (Windows NT 10.0; Win64; x64) AppleWebKit/537.36 (KHTML, like Gecko) draw.io/26.0.4 Chrome/128.0.6613.186 Electron/32.2.5 Safari/537.36" version="26.0.4">
  <diagram name="Page-1" id="fAhKg3FZhKNZAuuXv9Xj">
    <mxGraphModel dx="1034" dy="742" grid="1" gridSize="10" guides="1" tooltips="1" connect="1" arrows="1" fold="1" page="1" pageScale="1" pageWidth="850" pageHeight="1100" math="0" shadow="0">
      <root>
        <mxCell id="0" />
        <mxCell id="1" parent="0" />
        <mxCell id="DIs090DTXzcinbrhmhqo-2" value="&lt;font style=&quot;font-size: 14px; color: rgb(255, 255, 153);&quot; face=&quot;Lucida Console&quot;&gt;&amp;nbsp;getIPAddressFromJson(&quot;LUConfig.json&quot;)&lt;/font&gt;" style="shape=hexagon;perimeter=hexagonPerimeter2;whiteSpace=wrap;html=1;fixedSize=1;fillColor=#666666;align=left;" vertex="1" parent="1">
          <mxGeometry x="110" y="90" width="390" height="50" as="geometry" />
        </mxCell>
        <mxCell id="DIs090DTXzcinbrhmhqo-3" value="&lt;div style=&quot;font-size: 14px; line-height: 19px; white-space: pre;&quot;&gt;&lt;font style=&quot;color: rgb(255, 255, 153);&quot; face=&quot;Lucida Console&quot;&gt;&lt;span&gt; while&lt;/span&gt;(&lt;span&gt;1&lt;/span&gt;)&lt;/font&gt;&lt;/div&gt;" style="shape=hexagon;perimeter=hexagonPerimeter2;whiteSpace=wrap;html=1;fixedSize=1;fillColor=#666666;align=left;" vertex="1" parent="1">
          <mxGeometry x="110" y="140" width="390" height="50" as="geometry" />
        </mxCell>
        <mxCell id="DIs090DTXzcinbrhmhqo-4" value="&lt;div style=&quot;text-align: left; line-height: 19px;&quot;&gt;&lt;font face=&quot;Lucida Console&quot; color=&quot;#ffff99&quot;&gt;&lt;span style=&quot;font-size: 14px; white-space: pre;&quot;&gt;if(openAcqBus(Acq.ip_address) == 0)&lt;/span&gt;&lt;/font&gt;&lt;br&gt;&lt;/div&gt;" style="shape=hexagon;perimeter=hexagonPerimeter2;whiteSpace=wrap;html=1;fixedSize=1;fillColor=#666666;" vertex="1" parent="1">
          <mxGeometry x="140" y="190" width="390" height="50" as="geometry" />
        </mxCell>
        <mxCell id="DIs090DTXzcinbrhmhqo-5" value="&lt;div style=&quot;text-align: left; line-height: 19px;&quot;&gt;&lt;font face=&quot;Lucida Console&quot; color=&quot;#ffff99&quot;&gt;&lt;span style=&quot;font-size: 14px; white-space: pre;&quot;&gt;flag_recs = checkRecordFlags();&lt;/span&gt;&lt;/font&gt;&lt;br&gt;&lt;/div&gt;" style="shape=hexagon;perimeter=hexagonPerimeter2;whiteSpace=wrap;html=1;fixedSize=1;fillColor=#666666;" vertex="1" parent="1">
          <mxGeometry x="170" y="240" width="390" height="50" as="geometry" />
        </mxCell>
        <mxCell id="DIs090DTXzcinbrhmhqo-6" value="" style="rounded=0;whiteSpace=wrap;html=1;fillColor=#666666;gradientColor=none;" vertex="1" parent="1">
          <mxGeometry x="130" y="190" width="30" height="610" as="geometry" />
        </mxCell>
        <mxCell id="DIs090DTXzcinbrhmhqo-7" value="&lt;div style=&quot;line-height: 19px;&quot;&gt;&lt;font face=&quot;Lucida Console&quot; color=&quot;#ffff99&quot;&gt;&lt;span style=&quot;font-size: 14px; white-space: pre;&quot;&gt;if((flag_recs &amp;amp; (0x00FF)) &amp;gt; 0x0000)&lt;/span&gt;&lt;/font&gt;&lt;br&gt;&lt;/div&gt;" style="shape=hexagon;perimeter=hexagonPerimeter2;whiteSpace=wrap;html=1;fixedSize=1;fillColor=#666666;" vertex="1" parent="1">
          <mxGeometry x="170" y="290" width="390" height="50" as="geometry" />
        </mxCell>
        <mxCell id="DIs090DTXzcinbrhmhqo-9" value="" style="rounded=0;whiteSpace=wrap;html=1;fillColor=#666666;gradientColor=none;" vertex="1" parent="1">
          <mxGeometry x="160" y="240" width="30" height="560" as="geometry" />
        </mxCell>
        <mxCell id="DIs090DTXzcinbrhmhqo-10" value="&lt;blockquote style=&quot;margin: 0 0 0 40px; border: none; padding: 0px;&quot;&gt;&lt;div style=&quot;line-height: 19px;&quot;&gt;&lt;div style=&quot;line-height: 19px;&quot;&gt;&lt;font style=&quot;color: rgb(255, 255, 153);&quot; face=&quot;Lucida Console&quot;&gt;records_count = (flag_recs &amp;amp; (0x00FF));&lt;/font&gt;&lt;/div&gt;&lt;/div&gt;&lt;div style=&quot;line-height: 19px;&quot;&gt;&lt;div style=&quot;line-height: 19px;&quot;&gt;&lt;font style=&quot;color: rgb(255, 255, 153);&quot; face=&quot;Lucida Console&quot;&gt;for(lidxA=0;lidxA &amp;lt; records_count; lidxA++)&lt;/font&gt;&lt;/div&gt;&lt;/div&gt;&lt;div style=&quot;line-height: 19px;&quot;&gt;&lt;div style=&quot;line-height: 19px;&quot;&gt;&lt;font style=&quot;color: rgb(255, 255, 153);&quot; face=&quot;Lucida Console&quot;&gt;{&lt;/font&gt;&lt;/div&gt;&lt;/div&gt;&lt;/blockquote&gt;&lt;blockquote style=&quot;margin: 0 0 0 40px; border: none; padding: 0px;&quot;&gt;&lt;blockquote style=&quot;margin: 0 0 0 40px; border: none; padding: 0px;&quot;&gt;&lt;div style=&quot;line-height: 19px;&quot;&gt;&lt;div style=&quot;line-height: 19px;&quot;&gt;&lt;font style=&quot;color: rgb(255, 255, 153);&quot; face=&quot;Lucida Console&quot;&gt;prepareFileData();&lt;/font&gt;&lt;/div&gt;&lt;/div&gt;&lt;/blockquote&gt;&lt;blockquote style=&quot;margin: 0 0 0 40px; border: none; padding: 0px;&quot;&gt;&lt;div style=&quot;line-height: 19px;&quot;&gt;&lt;div style=&quot;line-height: 19px;&quot;&gt;&lt;font style=&quot;color: rgb(255, 255, 153);&quot; face=&quot;Lucida Console&quot;&gt;// (9 * 3600) to match the time zone UTC+9 hours&lt;/font&gt;&lt;/div&gt;&lt;/div&gt;&lt;/blockquote&gt;&lt;blockquote style=&quot;margin: 0 0 0 40px; border: none; padding: 0px;&quot;&gt;&lt;div style=&quot;line-height: 19px;&quot;&gt;&lt;div style=&quot;line-height: 19px;&quot;&gt;&lt;font style=&quot;color: rgb(255, 255, 153);&quot; face=&quot;Lucida Console&quot;&gt;now = cb_file.event_datetime + (9 * 3600);&amp;nbsp;&lt;/font&gt;&lt;/div&gt;&lt;/div&gt;&lt;/blockquote&gt;&lt;blockquote style=&quot;margin: 0 0 0 40px; border: none; padding: 0px;&quot;&gt;&lt;div style=&quot;line-height: 19px;&quot;&gt;&lt;div style=&quot;line-height: 19px;&quot;&gt;&lt;font style=&quot;color: rgb(255, 255, 153);&quot; face=&quot;Lucida Console&quot;&gt;gettimeofday(&amp;amp;dsSysTime, NULL);&lt;/font&gt;&lt;/div&gt;&lt;/div&gt;&lt;/blockquote&gt;&lt;blockquote style=&quot;margin: 0 0 0 40px; border: none; padding: 0px;&quot;&gt;&lt;div style=&quot;line-height: 19px;&quot;&gt;&lt;div style=&quot;line-height: 19px;&quot;&gt;&lt;font style=&quot;color: rgb(255, 255, 153);&quot; face=&quot;Lucida Console&quot;&gt;now = dsSysTime.tv_sec;&lt;/font&gt;&lt;/div&gt;&lt;/div&gt;&lt;/blockquote&gt;&lt;blockquote style=&quot;margin: 0 0 0 40px; border: none; padding: 0px;&quot;&gt;&lt;div style=&quot;line-height: 19px;&quot;&gt;&lt;div style=&quot;line-height: 19px;&quot;&gt;&lt;font style=&quot;color: rgb(255, 255, 153);&quot; face=&quot;Lucida Console&quot;&gt;tm = localtime(&amp;amp;now);&lt;/font&gt;&lt;/div&gt;&lt;/div&gt;&lt;/blockquote&gt;&lt;blockquote style=&quot;margin: 0 0 0 40px; border: none; padding: 0px;&quot;&gt;&lt;div style=&quot;line-height: 19px;&quot;&gt;&lt;div style=&quot;line-height: 19px;&quot;&gt;&lt;font style=&quot;color: rgb(255, 255, 153);&quot; face=&quot;Lucida Console&quot;&gt;now = dsSysTime.tv_sec;&lt;/font&gt;&lt;/div&gt;&lt;/div&gt;&lt;/blockquote&gt;&lt;blockquote style=&quot;margin: 0 0 0 40px; border: none; padding: 0px;&quot;&gt;&lt;div style=&quot;line-height: 19px;&quot;&gt;&lt;div style=&quot;line-height: 19px;&quot;&gt;&lt;font style=&quot;color: rgb(255, 255, 153);&quot; face=&quot;Lucida Console&quot;&gt;save_file(tm);&lt;/font&gt;&lt;/div&gt;&lt;/div&gt;&lt;/blockquote&gt;&lt;blockquote style=&quot;margin: 0 0 0 40px; border: none; padding: 0px;&quot;&gt;&lt;div style=&quot;line-height: 19px;&quot;&gt;&lt;div style=&quot;line-height: 19px;&quot;&gt;&lt;font style=&quot;color: rgb(255, 255, 153);&quot; face=&quot;Lucida Console&quot;&gt;printCBEvent(cbevnt);&lt;/font&gt;&lt;/div&gt;&lt;/div&gt;&lt;/blockquote&gt;&lt;/blockquote&gt;&lt;blockquote style=&quot;margin: 0 0 0 40px; border: none; padding: 0px;&quot;&gt;&lt;div style=&quot;line-height: 19px;&quot;&gt;&lt;div style=&quot;line-height: 19px;&quot;&gt;&lt;font style=&quot;color: rgb(255, 255, 153);&quot; face=&quot;Lucida Console&quot;&gt;}&lt;/font&gt;&lt;/div&gt;&lt;/div&gt;&lt;div style=&quot;line-height: 19px;&quot;&gt;&lt;div style=&quot;line-height: 19px;&quot;&gt;&lt;font style=&quot;color: rgb(255, 255, 153);&quot; face=&quot;Lucida Console&quot;&gt;gettimeofday(&amp;amp;dsSysTime, NULL);&lt;/font&gt;&lt;/div&gt;&lt;/div&gt;&lt;div style=&quot;line-height: 19px;&quot;&gt;&lt;div style=&quot;line-height: 19px;&quot;&gt;&lt;font style=&quot;color: rgb(255, 255, 153);&quot; face=&quot;Lucida Console&quot;&gt;now = dsSysTime.tv_sec; //time(0);&lt;/font&gt;&lt;/div&gt;&lt;/div&gt;&lt;div style=&quot;line-height: 19px;&quot;&gt;&lt;div style=&quot;line-height: 19px;&quot;&gt;&lt;font style=&quot;color: rgb(255, 255, 153);&quot; face=&quot;Lucida Console&quot;&gt;tm = localtime (&amp;amp;now);&lt;/font&gt;&lt;/div&gt;&lt;/div&gt;&lt;div style=&quot;line-height: 19px;&quot;&gt;&lt;div style=&quot;line-height: 19px;&quot;&gt;&lt;font style=&quot;color: rgb(255, 255, 153);&quot; face=&quot;Lucida Console&quot;&gt;now = dsSysTime.tv_sec;&lt;/font&gt;&lt;/div&gt;&lt;/div&gt;&lt;div style=&quot;line-height: 19px;&quot;&gt;&lt;div style=&quot;line-height: 19px;&quot;&gt;&lt;font style=&quot;color: rgb(255, 255, 153);&quot; face=&quot;Lucida Console&quot;&gt;_now = dsSysTime.tv_sec;&lt;/font&gt;&lt;/div&gt;&lt;/div&gt;&lt;div style=&quot;line-height: 19px;&quot;&gt;&lt;div style=&quot;line-height: 19px;&quot;&gt;&lt;font style=&quot;color: rgb(255, 255, 153);&quot; face=&quot;Lucida Console&quot;&gt;readMultiBlock(CBEVENT_BLOCK_SIZE, ...&lt;/font&gt;&lt;/div&gt;&lt;div style=&quot;line-height: 19px;&quot;&gt;&lt;font style=&quot;color: rgb(255, 255, 153);&quot; face=&quot;Lucida Console&quot;&gt;Save_File(...);&lt;/font&gt;&lt;/div&gt;&lt;/div&gt;&lt;/blockquote&gt;" style="shape=hexagon;perimeter=hexagonPerimeter2;whiteSpace=wrap;html=1;fixedSize=1;fillColor=#666666;align=left;" vertex="1" parent="1">
          <mxGeometry x="200" y="340" width="560" height="410" as="geometry" />
        </mxCell>
        <mxCell id="DIs090DTXzcinbrhmhqo-11" value="" style="rounded=0;whiteSpace=wrap;html=1;fillColor=#666666;gradientColor=none;" vertex="1" parent="1">
          <mxGeometry x="190" y="340" width="30" height="460" as="geometry" />
        </mxCell>
      </root>
    </mxGraphModel>
  </diagram>
</mxfile>
